<?xml version="1.0" encoding="us-ascii" standalone="no"?><svg xmlns="http://www.w3.org/2000/svg" xmlns:xlink="http://www.w3.org/1999/xlink" contentStyleType="text/css" height="1026px" preserveAspectRatio="none" style="width:4937px;height:1026px;background:#FFFFFF;" version="1.1" viewBox="0 0 4937 1026" width="4937px" zoomAndPan="magnify"><defs/><g><!--cluster Backend Project--><g id="cluster_Backend Project"><path d="M8.5,6 L124.5,6 A3.75,3.75 0 0 1 127,8.5 L134,29.6094 L4927.5,29.6094 A2.5,2.5 0 0 1 4930,32.1094 L4930,1016.5 A2.5,2.5 0 0 1 4927.5,1019 L8.5,1019 A2.5,2.5 0 0 1 6,1016.5 L6,8.5 A2.5,2.5 0 0 1 8.5,6 " fill="none" style="stroke:#000000;stroke-width:1.5;"/><line style="stroke:#000000;stroke-width:1.5;" x1="6" x2="134" y1="29.6094" y2="29.6094"/><text fill="#000000" font-family="sans-serif" font-size="14" font-weight="bold" lengthAdjust="spacing" textLength="115" x="10" y="22.5332">Backend Project</text></g><!--cluster Controllers--><g id="cluster_Controllers"><path d="M2709.5,227 L2789.5,227 A3.75,3.75 0 0 1 2792,229.5 L2799,250.6094 L4544.5,250.6094 A2.5,2.5 0 0 1 4547,253.1094 L4547,394.5 A2.5,2.5 0 0 1 4544.5,397 L2709.5,397 A2.5,2.5 0 0 1 2707,394.5 L2707,229.5 A2.5,2.5 0 0 1 2709.5,227 " fill="#FFD700" style="stroke:#000000;stroke-width:1.5;"/><line style="stroke:#000000;stroke-width:1.5;" x1="2707" x2="2799" y1="250.6094" y2="250.6094"/><text fill="#000000" font-family="sans-serif" font-size="14" font-weight="bold" lengthAdjust="spacing" textLength="79" x="2711" y="243.5332">Controllers</text></g><!--cluster Use Cases--><g id="cluster_Use Cases"><path d="M2681.5,447 L2756.5,447 A3.75,3.75 0 0 1 2759,449.5 L2766,470.6094 L4253.5,470.6094 A2.5,2.5 0 0 1 4256,473.1094 L4256,597.5 A2.5,2.5 0 0 1 4253.5,600 L2681.5,600 A2.5,2.5 0 0 1 2679,597.5 L2679,449.5 A2.5,2.5 0 0 1 2681.5,447 " fill="#FF4500" style="stroke:#000000;stroke-width:1.5;"/><line style="stroke:#000000;stroke-width:1.5;" x1="2679" x2="2766" y1="470.6094" y2="470.6094"/><text fill="#000000" font-family="sans-serif" font-size="14" font-weight="bold" lengthAdjust="spacing" textLength="74" x="2683" y="463.5332">Use Cases</text></g><!--cluster Repositories--><g id="cluster_Repositories"><path d="M32.5,650 L123.5,650 A3.75,3.75 0 0 1 126,652.5 L133,673.6094 L1458.5,673.6094 A2.5,2.5 0 0 1 1461,676.1094 L1461,983.5 A2.5,2.5 0 0 1 1458.5,986 L32.5,986 A2.5,2.5 0 0 1 30,983.5 L30,652.5 A2.5,2.5 0 0 1 32.5,650 " fill="#00BFFF" style="stroke:#000000;stroke-width:1.5;"/><line style="stroke:#000000;stroke-width:1.5;" x1="30" x2="133" y1="673.6094" y2="673.6094"/><text fill="#000000" font-family="sans-serif" font-size="14" font-weight="bold" lengthAdjust="spacing" textLength="90" x="34" y="666.5332">Repositories</text></g><!--cluster Services--><g id="cluster_Services"><path d="M2755.5,658.5 L2818.5,658.5 A3.75,3.75 0 0 1 2821,661 L2828,682.1094 L4100.5,682.1094 A2.5,2.5 0 0 1 4103,684.6094 L4103,983.5 A2.5,2.5 0 0 1 4100.5,986 L2755.5,986 A2.5,2.5 0 0 1 2753,983.5 L2753,661 A2.5,2.5 0 0 1 2755.5,658.5 " fill="#32CD32" style="stroke:#000000;stroke-width:1.5;"/><line style="stroke:#000000;stroke-width:1.5;" x1="2753" x2="2828" y1="682.1094" y2="682.1094"/><text fill="#000000" font-family="sans-serif" font-size="14" font-weight="bold" lengthAdjust="spacing" textLength="62" x="2757" y="675.0332">Services</text></g><!--cluster Entities--><g id="cluster_Entities"><path d="M1487.5,842 L1541.5,842 A3.75,3.75 0 0 1 1544,844.5 L1551,865.6094 L2726.5,865.6094 A2.5,2.5 0 0 1 2729,868.1094 L2729,992.5 A2.5,2.5 0 0 1 2726.5,995 L1487.5,995 A2.5,2.5 0 0 1 1485,992.5 L1485,844.5 A2.5,2.5 0 0 1 1487.5,842 " fill="#FFA500" style="stroke:#000000;stroke-width:1.5;"/><line style="stroke:#000000;stroke-width:1.5;" x1="1485" x2="1551" y1="865.6094" y2="865.6094"/><text fill="#000000" font-family="sans-serif" font-size="14" font-weight="bold" lengthAdjust="spacing" textLength="53" x="1489" y="858.5332">Entities</text></g><!--cluster Validation--><g id="cluster_Validation"><path d="M3158.5,50 L3228.5,50 A3.75,3.75 0 0 1 3231,52.5 L3238,73.6094 L4244.5,73.6094 A2.5,2.5 0 0 1 4247,76.1094 L4247,174.5 A2.5,2.5 0 0 1 4244.5,177 L3158.5,177 A2.5,2.5 0 0 1 3156,174.5 L3156,52.5 A2.5,2.5 0 0 1 3158.5,50 " fill="#FF69B4" style="stroke:#000000;stroke-width:1.5;"/><line style="stroke:#000000;stroke-width:1.5;" x1="3156" x2="3238" y1="73.6094" y2="73.6094"/><text fill="#000000" font-family="sans-serif" font-size="14" font-weight="bold" lengthAdjust="spacing" textLength="69" x="3160" y="66.5332">Validation</text></g><!--cluster Errors--><g id="cluster_Errors"><path d="M4129.5,658.5 L4174.5,658.5 A3.75,3.75 0 0 1 4177,661 L4184,682.1094 L4903.5,682.1094 A2.5,2.5 0 0 1 4906,684.6094 L4906,966 A2.5,2.5 0 0 1 4903.5,968.5 L4129.5,968.5 A2.5,2.5 0 0 1 4127,966 L4127,661 A2.5,2.5 0 0 1 4129.5,658.5 " fill="#FF6347" style="stroke:#000000;stroke-width:1.5;"/><line style="stroke:#000000;stroke-width:1.5;" x1="4127" x2="4184" y1="682.1094" y2="682.1094"/><text fill="#000000" font-family="sans-serif" font-size="14" font-weight="bold" lengthAdjust="spacing" textLength="44" x="4131" y="675.0332">Errors</text></g><!--cluster Decorators--><g id="cluster_Decorators"><path d="M2458.5,50 L2537.5,50 A3.75,3.75 0 0 1 2540,52.5 L2547,73.6094 L3129.5,73.6094 A2.5,2.5 0 0 1 3132,76.1094 L3132,174.5 A2.5,2.5 0 0 1 3129.5,177 L2458.5,177 A2.5,2.5 0 0 1 2456,174.5 L2456,52.5 A2.5,2.5 0 0 1 2458.5,50 " fill="#ADD8E6" style="stroke:#000000;stroke-width:1.5;"/><line style="stroke:#000000;stroke-width:1.5;" x1="2456" x2="2547" y1="73.6094" y2="73.6094"/><text fill="#000000" font-family="sans-serif" font-size="14" font-weight="bold" lengthAdjust="spacing" textLength="78" x="2460" y="66.5332">Decorators</text></g><!--class GenericController--><g id="elem_GenericController"><rect codeLine="5" fill="#F1F1F1" height="118.4375" id="GenericController" rx="2.5" ry="2.5" style="stroke:#181818;stroke-width:0.5;" width="273" x="2723.5" y="263"/><ellipse cx="2799.75" cy="279" fill="#ADD1B2" rx="11" ry="11" style="stroke:#181818;stroke-width:1.0;"/><path d="M2802.5156,274.875 Q2802.6719,274.6563 2802.8594,274.5469 Q2803.0469,274.4375 2803.2656,274.4375 Q2803.6406,274.4375 2803.875,274.6953 Q2804.1094,274.9531 2804.1094,275.5625 L2804.1094,277.0156 Q2804.1094,277.625 2803.875,277.8906 Q2803.6406,278.1563 2803.2656,278.1563 Q2802.9219,278.1563 2802.7188,277.9531 Q2802.5156,277.7656 2802.4063,277.25 Q2802.3594,276.8906 2802.1719,276.7031 Q2801.8438,276.3281 2801.2344,276.1094 Q2800.625,275.8906 2800,275.8906 Q2799.2344,275.8906 2798.6016,276.2188 Q2797.9688,276.5469 2797.4766,277.2969 Q2796.9844,278.0469 2796.9844,279.0781 L2796.9844,280.1719 Q2796.9844,281.4063 2797.875,282.2266 Q2798.7656,283.0469 2800.3594,283.0469 Q2801.2969,283.0469 2801.9531,282.7969 Q2802.3438,282.6406 2802.7656,282.2031 Q2803.0313,281.9375 2803.1797,281.8594 Q2803.3281,281.7813 2803.5313,281.7813 Q2803.8594,281.7813 2804.1172,282.0391 Q2804.375,282.2969 2804.375,282.6406 Q2804.375,282.9844 2804.0313,283.3906 Q2803.5313,283.9688 2802.7344,284.2969 Q2801.6563,284.75 2800.3594,284.75 Q2798.8438,284.75 2797.6406,284.125 Q2796.6563,283.625 2795.9688,282.5547 Q2795.2813,281.4844 2795.2813,280.2031 L2795.2813,279.0469 Q2795.2813,277.7188 2795.8984,276.5703 Q2796.5156,275.4219 2797.6094,274.8047 Q2798.7031,274.1875 2799.9375,274.1875 Q2800.6719,274.1875 2801.3203,274.3516 Q2801.9688,274.5156 2802.5156,274.875 Z " fill="#000000"/><text fill="#000000" font-family="sans-serif" font-size="14" lengthAdjust="spacing" textLength="112" x="2820.25" y="284.7285">GenericController</text><line style="stroke:#181818;stroke-width:0.5;" x1="2724.5" x2="2995.5" y1="295" y2="295"/><rect fill="none" height="6" style="stroke:#C82930;stroke-width:1.0;" width="6" x="2731.5" y="306.3047"/><text fill="#000000" font-family="sans-serif" font-size="14" lengthAdjust="spacing" textLength="171" x="2743.5" y="313.5332">useCase: GenericUseCase</text><rect fill="none" height="6" style="stroke:#C82930;stroke-width:1.0;" width="6" x="2731.5" y="323.9141"/><text fill="#000000" font-family="sans-serif" font-size="14" lengthAdjust="spacing" textLength="189" x="2743.5" y="331.1426">repository: GenericRepository</text><rect fill="none" height="6" style="stroke:#C82930;stroke-width:1.0;" width="6" x="2731.5" y="341.5234"/><text fill="#000000" font-family="sans-serif" font-size="14" lengthAdjust="spacing" textLength="201" x="2743.5" y="348.752">hashGenerator: HashGenerator</text><line style="stroke:#181818;stroke-width:1.0;" x1="2724.5" x2="2995.5" y1="355.8281" y2="355.8281"/><ellipse cx="2734.5" cy="370.1328" fill="#84BE84" rx="3" ry="3" style="stroke:#038048;stroke-width:1.0;"/><text fill="#000000" font-family="sans-serif" font-size="14" lengthAdjust="spacing" textLength="247" x="2743.5" y="374.3613">handleRequest(request: RequestType)</text></g><g id="elem_GMN5"><path d="M3031.5,276 L3031.5,318 L2996.71,322 L3031.5,326 L3031.5,367.7578 A0,0 0 0 0 3031.5,367.7578 L4530.5,367.7578 A0,0 0 0 0 4530.5,367.7578 L4530.5,286 L4520.5,276 L3031.5,276 A0,0 0 0 0 3031.5,276 " fill="#FEFFDD" style="stroke:#181818;stroke-width:0.5;"/><path d="M4520.5,276 L4520.5,286 L4530.5,286 L4520.5,276 " fill="#FEFFDD" style="stroke:#181818;stroke-width:0.5;"/><text fill="#000000" font-family="sans-serif" font-size="13" lengthAdjust="spacing" textLength="1478" x="3037.5" y="294.4951">Os controladores s&#227;o respons&#225;veis por lidar com as requisi&#231;&#245;es HTTP e delegar tarefas para os casos de uso e reposit&#243;rios. Utilizam decoradores do NestJS (@Controller, @Post, @Body, @UsePipes) e fazem valida&#231;&#245;es com Zod e Pipes personalizados.</text><text fill="#000000" font-family="sans-serif" font-size="13" font-weight="bold" lengthAdjust="spacing" textLength="109" x="3037.5" y="310.8467">Recomenda&#231;&#245;es:</text><text fill="#000000" font-family="sans-serif" font-size="13" lengthAdjust="spacing" textLength="412" x="3037.5" y="327.1982">1. Manter os controladores pequenos e focados em orquestrar a l&#243;gica.</text><text fill="#000000" font-family="sans-serif" font-size="13" lengthAdjust="spacing" textLength="308" x="3037.5" y="343.5498">2. Delegar a l&#243;gica de neg&#243;cio para os casos de uso.</text><text fill="#000000" font-family="sans-serif" font-size="13" lengthAdjust="spacing" textLength="323" x="3037.5" y="359.9014">3. Usar inje&#231;&#227;o de depend&#234;ncias fornecida pelo NestJS.</text></g><!--class GenericUseCase--><g id="elem_GenericUseCase"><rect codeLine="22" fill="#F1F1F1" height="100.8281" id="GenericUseCase" rx="2.5" ry="2.5" style="stroke:#181818;stroke-width:0.5;" width="330" x="2695" y="483"/><ellipse cx="2802.25" cy="499" fill="#ADD1B2" rx="11" ry="11" style="stroke:#181818;stroke-width:1.0;"/><path d="M2805.0156,494.875 Q2805.1719,494.6563 2805.3594,494.5469 Q2805.5469,494.4375 2805.7656,494.4375 Q2806.1406,494.4375 2806.375,494.6953 Q2806.6094,494.9531 2806.6094,495.5625 L2806.6094,497.0156 Q2806.6094,497.625 2806.375,497.8906 Q2806.1406,498.1563 2805.7656,498.1563 Q2805.4219,498.1563 2805.2188,497.9531 Q2805.0156,497.7656 2804.9063,497.25 Q2804.8594,496.8906 2804.6719,496.7031 Q2804.3438,496.3281 2803.7344,496.1094 Q2803.125,495.8906 2802.5,495.8906 Q2801.7344,495.8906 2801.1016,496.2188 Q2800.4688,496.5469 2799.9766,497.2969 Q2799.4844,498.0469 2799.4844,499.0781 L2799.4844,500.1719 Q2799.4844,501.4063 2800.375,502.2266 Q2801.2656,503.0469 2802.8594,503.0469 Q2803.7969,503.0469 2804.4531,502.7969 Q2804.8438,502.6406 2805.2656,502.2031 Q2805.5313,501.9375 2805.6797,501.8594 Q2805.8281,501.7813 2806.0313,501.7813 Q2806.3594,501.7813 2806.6172,502.0391 Q2806.875,502.2969 2806.875,502.6406 Q2806.875,502.9844 2806.5313,503.3906 Q2806.0313,503.9688 2805.2344,504.2969 Q2804.1563,504.75 2802.8594,504.75 Q2801.3438,504.75 2800.1406,504.125 Q2799.1563,503.625 2798.4688,502.5547 Q2797.7813,501.4844 2797.7813,500.2031 L2797.7813,499.0469 Q2797.7813,497.7188 2798.3984,496.5703 Q2799.0156,495.4219 2800.1094,494.8047 Q2801.2031,494.1875 2802.4375,494.1875 Q2803.1719,494.1875 2803.8203,494.3516 Q2804.4688,494.5156 2805.0156,494.875 Z " fill="#000000"/><text fill="#000000" font-family="sans-serif" font-size="14" lengthAdjust="spacing" textLength="107" x="2822.75" y="504.7285">GenericUseCase</text><line style="stroke:#181818;stroke-width:0.5;" x1="2696" x2="3024" y1="515" y2="515"/><rect fill="none" height="6" style="stroke:#C82930;stroke-width:1.0;" width="6" x="2703" y="526.3047"/><text fill="#000000" font-family="sans-serif" font-size="14" lengthAdjust="spacing" textLength="189" x="2715" y="533.5332">repository: GenericRepository</text><rect fill="none" height="6" style="stroke:#C82930;stroke-width:1.0;" width="6" x="2703" y="543.9141"/><text fill="#000000" font-family="sans-serif" font-size="14" lengthAdjust="spacing" textLength="201" x="2715" y="551.1426">hashGenerator: HashGenerator</text><line style="stroke:#181818;stroke-width:1.0;" x1="2696" x2="3024" y1="558.2188" y2="558.2188"/><ellipse cx="2706" cy="572.5234" fill="#84BE84" rx="3" ry="3" style="stroke:#038048;stroke-width:1.0;"/><text fill="#000000" font-family="sans-serif" font-size="14" lengthAdjust="spacing" textLength="304" x="2715" y="576.752">execute(request: RequestType): ResponseType</text></g><g id="elem_GMN10"><path d="M3060.5,496 L3060.5,529.5 L3025.1,533.5 L3060.5,537.5 L3060.5,571.4063 A0,0 0 0 0 3060.5,571.4063 L4239.5,571.4063 A0,0 0 0 0 4239.5,571.4063 L4239.5,506 L4229.5,496 L3060.5,496 A0,0 0 0 0 3060.5,496 " fill="#FEFFDD" style="stroke:#181818;stroke-width:0.5;"/><path d="M4229.5,496 L4229.5,506 L4239.5,506 L4229.5,496 " fill="#FEFFDD" style="stroke:#181818;stroke-width:0.5;"/><text fill="#000000" font-family="sans-serif" font-size="13" lengthAdjust="spacing" textLength="1158" x="3066.5" y="514.4951">Os casos de uso cont&#234;m a l&#243;gica de neg&#243;cio e orquestram a intera&#231;&#227;o entre reposit&#243;rios e servi&#231;os. S&#227;o implementados como classes no padr&#227;o Command e manipulam a l&#243;gica de neg&#243;cio principal.</text><text fill="#000000" font-family="sans-serif" font-size="13" font-weight="bold" lengthAdjust="spacing" textLength="109" x="3066.5" y="530.8467">Recomenda&#231;&#245;es:</text><text fill="#000000" font-family="sans-serif" font-size="13" lengthAdjust="spacing" textLength="359" x="3066.5" y="547.1982">1. Manter a l&#243;gica de neg&#243;cio encapsulada nos casos de uso.</text><text fill="#000000" font-family="sans-serif" font-size="13" lengthAdjust="spacing" textLength="429" x="3066.5" y="563.5498">2. Evitar depend&#234;ncias diretas de frameworks dentro da l&#243;gica de neg&#243;cio.</text></g><!--class GenericRepository--><g id="elem_GenericRepository"><rect codeLine="37" fill="#F1F1F1" height="83.2188" id="GenericRepository" rx="2.5" ry="2.5" style="stroke:#181818;stroke-width:0.5;" width="298" x="1147" y="690.5"/><ellipse cx="1232.75" cy="706.5" fill="#B4A7E5" rx="11" ry="11" style="stroke:#181818;stroke-width:1.0;"/><path d="M1233.7031,703.1406 L1233.7031,709.7969 L1235.4219,709.7969 Q1236.0313,709.7969 1236.2969,710.0313 Q1236.5625,710.2656 1236.5625,710.6563 Q1236.5625,711.0313 1236.2969,711.2656 Q1236.0313,711.5 1235.4219,711.5 L1230.2813,711.5 Q1229.6719,711.5 1229.4063,711.2656 Q1229.1406,711.0313 1229.1406,710.6406 Q1229.1406,710.2656 1229.4063,710.0313 Q1229.6719,709.7969 1230.2813,709.7969 L1232,709.7969 L1232,703.1406 L1230.2813,703.1406 Q1229.6719,703.1406 1229.4063,702.9063 Q1229.1406,702.6719 1229.1406,702.2813 Q1229.1406,701.9063 1229.4063,701.6719 Q1229.6719,701.4375 1230.2813,701.4375 L1235.4219,701.4375 Q1236.0313,701.4375 1236.2969,701.6719 Q1236.5625,701.9063 1236.5625,702.2813 Q1236.5625,702.6719 1236.2969,702.9063 Q1236.0313,703.1406 1235.4219,703.1406 L1233.7031,703.1406 Z " fill="#000000"/><text fill="#000000" font-family="sans-serif" font-size="14" font-style="italic" lengthAdjust="spacing" textLength="118" x="1253.25" y="712.2285">GenericRepository</text><line style="stroke:#181818;stroke-width:0.5;" x1="1148" x2="1444" y1="722.5" y2="722.5"/><line style="stroke:#181818;stroke-width:0.5;" x1="1148" x2="1444" y1="730.5" y2="730.5"/><ellipse cx="1158" cy="744.8047" fill="#84BE84" rx="3" ry="3" style="stroke:#038048;stroke-width:1.0;"/><text fill="#000000" font-family="sans-serif" font-size="14" lengthAdjust="spacing" textLength="272" x="1167" y="749.0332">findByAttribute(attribute: string): EntityType</text><ellipse cx="1158" cy="762.4141" fill="#84BE84" rx="3" ry="3" style="stroke:#038048;stroke-width:1.0;"/><text fill="#000000" font-family="sans-serif" font-size="14" lengthAdjust="spacing" textLength="183" x="1167" y="766.6426">save(entity: EntityType): void</text></g><g id="elem_GMN15"><path d="M46.5,686 L46.5,777.7578 A0,0 0 0 0 46.5,777.7578 L1111.5,777.7578 A0,0 0 0 0 1111.5,777.7578 L1111.5,736 L1146.74,732 L1111.5,728 L1111.5,696 L1101.5,686 L46.5,686 A0,0 0 0 0 46.5,686 " fill="#FEFFDD" style="stroke:#181818;stroke-width:0.5;"/><path d="M1101.5,686 L1101.5,696 L1111.5,696 L1101.5,686 " fill="#FEFFDD" style="stroke:#181818;stroke-width:0.5;"/><text fill="#000000" font-family="sans-serif" font-size="13" lengthAdjust="spacing" textLength="1044" x="52.5" y="704.4951">Os reposit&#243;rios s&#227;o respons&#225;veis por interagir com a camada de dados, abstraindo os detalhes de persist&#234;ncia. Utilizam Prisma como ORM e definem m&#233;todos de acesso a dados.</text><text fill="#000000" font-family="sans-serif" font-size="13" font-weight="bold" lengthAdjust="spacing" textLength="109" x="52.5" y="720.8467">Recomenda&#231;&#245;es:</text><text fill="#000000" font-family="sans-serif" font-size="13" lengthAdjust="spacing" textLength="320" x="52.5" y="737.1982">1. Usar interfaces para definir contratos de reposit&#243;rios.</text><text fill="#000000" font-family="sans-serif" font-size="13" lengthAdjust="spacing" textLength="446" x="52.5" y="753.5498">2. Implementar reposit&#243;rios espec&#237;ficos usando Prisma para acesso a dados.</text><text fill="#000000" font-family="sans-serif" font-size="13" lengthAdjust="spacing" textLength="397" x="52.5" y="769.9014">3. Manter os reposit&#243;rios focados em opera&#231;&#245;es de banco de dados.</text></g><!--class PrismaRepository--><g id="elem_PrismaRepository"><rect codeLine="48" fill="#F1F1F1" height="83.2188" id="PrismaRepository" rx="2.5" ry="2.5" style="stroke:#181818;stroke-width:0.5;" width="298" x="814" y="887"/><ellipse cx="903.25" cy="903" fill="#ADD1B2" rx="11" ry="11" style="stroke:#181818;stroke-width:1.0;"/><path d="M906.0156,898.875 Q906.1719,898.6563 906.3594,898.5469 Q906.5469,898.4375 906.7656,898.4375 Q907.1406,898.4375 907.375,898.6953 Q907.6094,898.9531 907.6094,899.5625 L907.6094,901.0156 Q907.6094,901.625 907.375,901.8906 Q907.1406,902.1563 906.7656,902.1563 Q906.4219,902.1563 906.2188,901.9531 Q906.0156,901.7656 905.9063,901.25 Q905.8594,900.8906 905.6719,900.7031 Q905.3438,900.3281 904.7344,900.1094 Q904.125,899.8906 903.5,899.8906 Q902.7344,899.8906 902.1016,900.2188 Q901.4688,900.5469 900.9766,901.2969 Q900.4844,902.0469 900.4844,903.0781 L900.4844,904.1719 Q900.4844,905.4063 901.375,906.2266 Q902.2656,907.0469 903.8594,907.0469 Q904.7969,907.0469 905.4531,906.7969 Q905.8438,906.6406 906.2656,906.2031 Q906.5313,905.9375 906.6797,905.8594 Q906.8281,905.7813 907.0313,905.7813 Q907.3594,905.7813 907.6172,906.0391 Q907.875,906.2969 907.875,906.6406 Q907.875,906.9844 907.5313,907.3906 Q907.0313,907.9688 906.2344,908.2969 Q905.1563,908.75 903.8594,908.75 Q902.3438,908.75 901.1406,908.125 Q900.1563,907.625 899.4688,906.5547 Q898.7813,905.4844 898.7813,904.2031 L898.7813,903.0469 Q898.7813,901.7188 899.3984,900.5703 Q900.0156,899.4219 901.1094,898.8047 Q902.2031,898.1875 903.4375,898.1875 Q904.1719,898.1875 904.8203,898.3516 Q905.4688,898.5156 906.0156,898.875 Z " fill="#000000"/><text fill="#000000" font-family="sans-serif" font-size="14" lengthAdjust="spacing" textLength="111" x="923.75" y="908.7285">PrismaRepository</text><line style="stroke:#181818;stroke-width:0.5;" x1="815" x2="1111" y1="919" y2="919"/><line style="stroke:#181818;stroke-width:0.5;" x1="815" x2="1111" y1="927" y2="927"/><ellipse cx="825" cy="941.3047" fill="#84BE84" rx="3" ry="3" style="stroke:#038048;stroke-width:1.0;"/><text fill="#000000" font-family="sans-serif" font-size="14" lengthAdjust="spacing" textLength="272" x="834" y="945.5332">findByAttribute(attribute: string): EntityType</text><ellipse cx="825" cy="958.9141" fill="#84BE84" rx="3" ry="3" style="stroke:#038048;stroke-width:1.0;"/><text fill="#000000" font-family="sans-serif" font-size="14" lengthAdjust="spacing" textLength="183" x="834" y="963.1426">save(entity: EntityType): void</text></g><!--class InMemoryRepository--><g id="elem_InMemoryRepository"><rect codeLine="52" fill="#F1F1F1" height="83.2188" id="InMemoryRepository" rx="2.5" ry="2.5" style="stroke:#181818;stroke-width:0.5;" width="298" x="1147" y="887"/><ellipse cx="1227.25" cy="903" fill="#ADD1B2" rx="11" ry="11" style="stroke:#181818;stroke-width:1.0;"/><path d="M1230.0156,898.875 Q1230.1719,898.6563 1230.3594,898.5469 Q1230.5469,898.4375 1230.7656,898.4375 Q1231.1406,898.4375 1231.375,898.6953 Q1231.6094,898.9531 1231.6094,899.5625 L1231.6094,901.0156 Q1231.6094,901.625 1231.375,901.8906 Q1231.1406,902.1563 1230.7656,902.1563 Q1230.4219,902.1563 1230.2188,901.9531 Q1230.0156,901.7656 1229.9063,901.25 Q1229.8594,900.8906 1229.6719,900.7031 Q1229.3438,900.3281 1228.7344,900.1094 Q1228.125,899.8906 1227.5,899.8906 Q1226.7344,899.8906 1226.1016,900.2188 Q1225.4688,900.5469 1224.9766,901.2969 Q1224.4844,902.0469 1224.4844,903.0781 L1224.4844,904.1719 Q1224.4844,905.4063 1225.375,906.2266 Q1226.2656,907.0469 1227.8594,907.0469 Q1228.7969,907.0469 1229.4531,906.7969 Q1229.8438,906.6406 1230.2656,906.2031 Q1230.5313,905.9375 1230.6797,905.8594 Q1230.8281,905.7813 1231.0313,905.7813 Q1231.3594,905.7813 1231.6172,906.0391 Q1231.875,906.2969 1231.875,906.6406 Q1231.875,906.9844 1231.5313,907.3906 Q1231.0313,907.9688 1230.2344,908.2969 Q1229.1563,908.75 1227.8594,908.75 Q1226.3438,908.75 1225.1406,908.125 Q1224.1563,907.625 1223.4688,906.5547 Q1222.7813,905.4844 1222.7813,904.2031 L1222.7813,903.0469 Q1222.7813,901.7188 1223.3984,900.5703 Q1224.0156,899.4219 1225.1094,898.8047 Q1226.2031,898.1875 1227.4375,898.1875 Q1228.1719,898.1875 1228.8203,898.3516 Q1229.4688,898.5156 1230.0156,898.875 Z " fill="#000000"/><text fill="#000000" font-family="sans-serif" font-size="14" lengthAdjust="spacing" textLength="129" x="1247.75" y="908.7285">InMemoryRepository</text><line style="stroke:#181818;stroke-width:0.5;" x1="1148" x2="1444" y1="919" y2="919"/><line style="stroke:#181818;stroke-width:0.5;" x1="1148" x2="1444" y1="927" y2="927"/><ellipse cx="1158" cy="941.3047" fill="#84BE84" rx="3" ry="3" style="stroke:#038048;stroke-width:1.0;"/><text fill="#000000" font-family="sans-serif" font-size="14" lengthAdjust="spacing" textLength="272" x="1167" y="945.5332">findByAttribute(attribute: string): EntityType</text><ellipse cx="1158" cy="958.9141" fill="#84BE84" rx="3" ry="3" style="stroke:#038048;stroke-width:1.0;"/><text fill="#000000" font-family="sans-serif" font-size="14" lengthAdjust="spacing" textLength="183" x="1167" y="963.1426">save(entity: EntityType): void</text></g><!--class HashGenerator--><g id="elem_HashGenerator"><rect codeLine="59" fill="#F1F1F1" height="65.6094" id="HashGenerator" rx="2.5" ry="2.5" style="stroke:#181818;stroke-width:0.5;" width="181" x="2769.5" y="699"/><ellipse cx="2807.9" cy="715" fill="#ADD1B2" rx="11" ry="11" style="stroke:#181818;stroke-width:1.0;"/><path d="M2810.6656,710.875 Q2810.8219,710.6563 2811.0094,710.5469 Q2811.1969,710.4375 2811.4156,710.4375 Q2811.7906,710.4375 2812.025,710.6953 Q2812.2594,710.9531 2812.2594,711.5625 L2812.2594,713.0156 Q2812.2594,713.625 2812.025,713.8906 Q2811.7906,714.1563 2811.4156,714.1563 Q2811.0719,714.1563 2810.8688,713.9531 Q2810.6656,713.7656 2810.5563,713.25 Q2810.5094,712.8906 2810.3219,712.7031 Q2809.9938,712.3281 2809.3844,712.1094 Q2808.775,711.8906 2808.15,711.8906 Q2807.3844,711.8906 2806.7516,712.2188 Q2806.1188,712.5469 2805.6266,713.2969 Q2805.1344,714.0469 2805.1344,715.0781 L2805.1344,716.1719 Q2805.1344,717.4063 2806.025,718.2266 Q2806.9156,719.0469 2808.5094,719.0469 Q2809.4469,719.0469 2810.1031,718.7969 Q2810.4938,718.6406 2810.9156,718.2031 Q2811.1813,717.9375 2811.3297,717.8594 Q2811.4781,717.7813 2811.6813,717.7813 Q2812.0094,717.7813 2812.2672,718.0391 Q2812.525,718.2969 2812.525,718.6406 Q2812.525,718.9844 2812.1813,719.3906 Q2811.6813,719.9688 2810.8844,720.2969 Q2809.8063,720.75 2808.5094,720.75 Q2806.9938,720.75 2805.7906,720.125 Q2804.8063,719.625 2804.1188,718.5547 Q2803.4313,717.4844 2803.4313,716.2031 L2803.4313,715.0469 Q2803.4313,713.7188 2804.0484,712.5703 Q2804.6656,711.4219 2805.7594,710.8047 Q2806.8531,710.1875 2808.0875,710.1875 Q2808.8219,710.1875 2809.4703,710.3516 Q2810.1188,710.5156 2810.6656,710.875 Z " fill="#000000"/><text fill="#000000" font-family="sans-serif" font-size="14" lengthAdjust="spacing" textLength="97" x="2827.1" y="720.7285">HashGenerator</text><line style="stroke:#181818;stroke-width:0.5;" x1="2770.5" x2="2949.5" y1="731" y2="731"/><line style="stroke:#181818;stroke-width:0.5;" x1="2770.5" x2="2949.5" y1="739" y2="739"/><ellipse cx="2780.5" cy="753.3047" fill="#84BE84" rx="3" ry="3" style="stroke:#038048;stroke-width:1.0;"/><text fill="#000000" font-family="sans-serif" font-size="14" lengthAdjust="spacing" textLength="155" x="2789.5" y="757.5332">hash(data: string): string</text></g><!--class BcryptHashGenerator--><g id="elem_BcryptHashGenerator"><rect codeLine="62" fill="#F1F1F1" height="65.6094" id="BcryptHashGenerator" rx="2.5" ry="2.5" style="stroke:#181818;stroke-width:0.5;" width="181" x="2769.5" y="895.5"/><ellipse cx="2789.9" cy="911.5" fill="#ADD1B2" rx="11" ry="11" style="stroke:#181818;stroke-width:1.0;"/><path d="M2792.6656,907.375 Q2792.8219,907.1563 2793.0094,907.0469 Q2793.1969,906.9375 2793.4156,906.9375 Q2793.7906,906.9375 2794.025,907.1953 Q2794.2594,907.4531 2794.2594,908.0625 L2794.2594,909.5156 Q2794.2594,910.125 2794.025,910.3906 Q2793.7906,910.6563 2793.4156,910.6563 Q2793.0719,910.6563 2792.8688,910.4531 Q2792.6656,910.2656 2792.5563,909.75 Q2792.5094,909.3906 2792.3219,909.2031 Q2791.9938,908.8281 2791.3844,908.6094 Q2790.775,908.3906 2790.15,908.3906 Q2789.3844,908.3906 2788.7516,908.7188 Q2788.1188,909.0469 2787.6266,909.7969 Q2787.1344,910.5469 2787.1344,911.5781 L2787.1344,912.6719 Q2787.1344,913.9063 2788.025,914.7266 Q2788.9156,915.5469 2790.5094,915.5469 Q2791.4469,915.5469 2792.1031,915.2969 Q2792.4938,915.1406 2792.9156,914.7031 Q2793.1813,914.4375 2793.3297,914.3594 Q2793.4781,914.2813 2793.6813,914.2813 Q2794.0094,914.2813 2794.2672,914.5391 Q2794.525,914.7969 2794.525,915.1406 Q2794.525,915.4844 2794.1813,915.8906 Q2793.6813,916.4688 2792.8844,916.7969 Q2791.8063,917.25 2790.5094,917.25 Q2788.9938,917.25 2787.7906,916.625 Q2786.8063,916.125 2786.1188,915.0547 Q2785.4313,913.9844 2785.4313,912.7031 L2785.4313,911.5469 Q2785.4313,910.2188 2786.0484,909.0703 Q2786.6656,907.9219 2787.7594,907.3047 Q2788.8531,906.6875 2790.0875,906.6875 Q2790.8219,906.6875 2791.4703,906.8516 Q2792.1188,907.0156 2792.6656,907.375 Z " fill="#000000"/><text fill="#000000" font-family="sans-serif" font-size="14" lengthAdjust="spacing" textLength="137" x="2805.1" y="917.2285">BcryptHashGenerator</text><line style="stroke:#181818;stroke-width:0.5;" x1="2770.5" x2="2949.5" y1="927.5" y2="927.5"/><line style="stroke:#181818;stroke-width:0.5;" x1="2770.5" x2="2949.5" y1="935.5" y2="935.5"/><ellipse cx="2780.5" cy="949.8047" fill="#84BE84" rx="3" ry="3" style="stroke:#038048;stroke-width:1.0;"/><text fill="#000000" font-family="sans-serif" font-size="14" lengthAdjust="spacing" textLength="155" x="2789.5" y="954.0332">hash(data: string): string</text></g><!--class FakeHashGenerator--><g id="elem_FakeHashGenerator"><rect codeLine="65" fill="#F1F1F1" height="83.2188" id="FakeHashGenerator" rx="2.5" ry="2.5" style="stroke:#181818;stroke-width:0.5;" width="303" x="2985.5" y="887"/><ellipse cx="3068.25" cy="903" fill="#ADD1B2" rx="11" ry="11" style="stroke:#181818;stroke-width:1.0;"/><path d="M3071.0156,898.875 Q3071.1719,898.6563 3071.3594,898.5469 Q3071.5469,898.4375 3071.7656,898.4375 Q3072.1406,898.4375 3072.375,898.6953 Q3072.6094,898.9531 3072.6094,899.5625 L3072.6094,901.0156 Q3072.6094,901.625 3072.375,901.8906 Q3072.1406,902.1563 3071.7656,902.1563 Q3071.4219,902.1563 3071.2188,901.9531 Q3071.0156,901.7656 3070.9063,901.25 Q3070.8594,900.8906 3070.6719,900.7031 Q3070.3438,900.3281 3069.7344,900.1094 Q3069.125,899.8906 3068.5,899.8906 Q3067.7344,899.8906 3067.1016,900.2188 Q3066.4688,900.5469 3065.9766,901.2969 Q3065.4844,902.0469 3065.4844,903.0781 L3065.4844,904.1719 Q3065.4844,905.4063 3066.375,906.2266 Q3067.2656,907.0469 3068.8594,907.0469 Q3069.7969,907.0469 3070.4531,906.7969 Q3070.8438,906.6406 3071.2656,906.2031 Q3071.5313,905.9375 3071.6797,905.8594 Q3071.8281,905.7813 3072.0313,905.7813 Q3072.3594,905.7813 3072.6172,906.0391 Q3072.875,906.2969 3072.875,906.6406 Q3072.875,906.9844 3072.5313,907.3906 Q3072.0313,907.9688 3071.2344,908.2969 Q3070.1563,908.75 3068.8594,908.75 Q3067.3438,908.75 3066.1406,908.125 Q3065.1563,907.625 3064.4688,906.5547 Q3063.7813,905.4844 3063.7813,904.2031 L3063.7813,903.0469 Q3063.7813,901.7188 3064.3984,900.5703 Q3065.0156,899.4219 3066.1094,898.8047 Q3067.2031,898.1875 3068.4375,898.1875 Q3069.1719,898.1875 3069.8203,898.3516 Q3070.4688,898.5156 3071.0156,898.875 Z " fill="#000000"/><text fill="#000000" font-family="sans-serif" font-size="14" lengthAdjust="spacing" textLength="129" x="3088.75" y="908.7285">FakeHashGenerator</text><line style="stroke:#181818;stroke-width:0.5;" x1="2986.5" x2="3287.5" y1="919" y2="919"/><line style="stroke:#181818;stroke-width:0.5;" x1="2986.5" x2="3287.5" y1="927" y2="927"/><ellipse cx="2996.5" cy="941.3047" fill="#84BE84" rx="3" ry="3" style="stroke:#038048;stroke-width:1.0;"/><text fill="#000000" font-family="sans-serif" font-size="14" lengthAdjust="spacing" textLength="155" x="3005.5" y="945.5332">hash(data: string): string</text><ellipse cx="2996.5" cy="958.9141" fill="#84BE84" rx="3" ry="3" style="stroke:#038048;stroke-width:1.0;"/><text fill="#000000" font-family="sans-serif" font-size="14" lengthAdjust="spacing" textLength="277" x="3005.5" y="963.1426">compare(data: string, hash: string): boolean</text></g><g id="elem_GMN28"><path d="M2985.5,694.5 L2985.5,728 L2950.77,732 L2985.5,736 L2985.5,769.9063 A0,0 0 0 0 2985.5,769.9063 L4086.5,769.9063 A0,0 0 0 0 4086.5,769.9063 L4086.5,704.5 L4076.5,694.5 L2985.5,694.5 A0,0 0 0 0 2985.5,694.5 " fill="#FEFFDD" style="stroke:#181818;stroke-width:0.5;"/><path d="M4076.5,694.5 L4076.5,704.5 L4086.5,704.5 L4076.5,694.5 " fill="#FEFFDD" style="stroke:#181818;stroke-width:0.5;"/><text fill="#000000" font-family="sans-serif" font-size="13" lengthAdjust="spacing" textLength="1080" x="2991.5" y="712.9951">A classe HashGenerator &#233; uma abstra&#231;&#227;o para a gera&#231;&#227;o de hashes. Implementa&#231;&#245;es concretas como BcryptHashGenerator s&#227;o usadas em produ&#231;&#227;o e FakeHashGenerator para testes.</text><text fill="#000000" font-family="sans-serif" font-size="13" font-weight="bold" lengthAdjust="spacing" textLength="109" x="2991.5" y="729.3467">Recomenda&#231;&#245;es:</text><text fill="#000000" font-family="sans-serif" font-size="13" lengthAdjust="spacing" textLength="361" x="2991.5" y="745.6982">1. Usar implementa&#231;&#245;es seguras para produ&#231;&#227;o, como bcrypt.</text><text fill="#000000" font-family="sans-serif" font-size="13" lengthAdjust="spacing" textLength="338" x="2991.5" y="762.0498">2. Manter a l&#243;gica de hash separada da l&#243;gica de neg&#243;cio.</text></g><!--class Entity--><g id="elem_Entity"><rect codeLine="78" fill="#F1F1F1" height="100.8281" id="Entity" rx="2.5" ry="2.5" style="stroke:#181818;stroke-width:0.5;" width="249" x="1501.5" y="878"/><ellipse cx="1604.25" cy="894" fill="#ADD1B2" rx="11" ry="11" style="stroke:#181818;stroke-width:1.0;"/><path d="M1607.0156,889.875 Q1607.1719,889.6563 1607.3594,889.5469 Q1607.5469,889.4375 1607.7656,889.4375 Q1608.1406,889.4375 1608.375,889.6953 Q1608.6094,889.9531 1608.6094,890.5625 L1608.6094,892.0156 Q1608.6094,892.625 1608.375,892.8906 Q1608.1406,893.1563 1607.7656,893.1563 Q1607.4219,893.1563 1607.2188,892.9531 Q1607.0156,892.7656 1606.9063,892.25 Q1606.8594,891.8906 1606.6719,891.7031 Q1606.3438,891.3281 1605.7344,891.1094 Q1605.125,890.8906 1604.5,890.8906 Q1603.7344,890.8906 1603.1016,891.2188 Q1602.4688,891.5469 1601.9766,892.2969 Q1601.4844,893.0469 1601.4844,894.0781 L1601.4844,895.1719 Q1601.4844,896.4063 1602.375,897.2266 Q1603.2656,898.0469 1604.8594,898.0469 Q1605.7969,898.0469 1606.4531,897.7969 Q1606.8438,897.6406 1607.2656,897.2031 Q1607.5313,896.9375 1607.6797,896.8594 Q1607.8281,896.7813 1608.0313,896.7813 Q1608.3594,896.7813 1608.6172,897.0391 Q1608.875,897.2969 1608.875,897.6406 Q1608.875,897.9844 1608.5313,898.3906 Q1608.0313,898.9688 1607.2344,899.2969 Q1606.1563,899.75 1604.8594,899.75 Q1603.3438,899.75 1602.1406,899.125 Q1601.1563,898.625 1600.4688,897.5547 Q1599.7813,896.4844 1599.7813,895.2031 L1599.7813,894.0469 Q1599.7813,892.7188 1600.3984,891.5703 Q1601.0156,890.4219 1602.1094,889.8047 Q1603.2031,889.1875 1604.4375,889.1875 Q1605.1719,889.1875 1605.8203,889.3516 Q1606.4688,889.5156 1607.0156,889.875 Z " fill="#000000"/><text fill="#000000" font-family="sans-serif" font-size="14" lengthAdjust="spacing" textLength="35" x="1624.75" y="899.7285">Entity</text><line style="stroke:#181818;stroke-width:0.5;" x1="1502.5" x2="1749.5" y1="910" y2="910"/><rect fill="none" height="6" style="stroke:#C82930;stroke-width:1.0;" width="6" x="1509.5" y="921.3047"/><text fill="#000000" font-family="sans-serif" font-size="14" lengthAdjust="spacing" textLength="108" x="1521.5" y="928.5332">attribute1: Type1</text><rect fill="none" height="6" style="stroke:#C82930;stroke-width:1.0;" width="6" x="1509.5" y="938.9141"/><text fill="#000000" font-family="sans-serif" font-size="14" lengthAdjust="spacing" textLength="108" x="1521.5" y="946.1426">attribute2: Type2</text><line style="stroke:#181818;stroke-width:1.0;" x1="1502.5" x2="1749.5" y1="953.2188" y2="953.2188"/><ellipse cx="1512.5" cy="967.5234" fill="#84BE84" rx="3" ry="3" style="stroke:#038048;stroke-width:1.0;"/><text fill="#000000" font-family="sans-serif" font-size="14" lengthAdjust="spacing" textLength="223" x="1521.5" y="971.752">create(data: DataType): EntityType</text></g><g id="elem_GMN33"><path d="M1785.5,891 L1785.5,924.5 L1750.72,928.5 L1785.5,932.5 L1785.5,966.4063 A0,0 0 0 0 1785.5,966.4063 L2712.5,966.4063 A0,0 0 0 0 2712.5,966.4063 L2712.5,901 L2702.5,891 L1785.5,891 A0,0 0 0 0 1785.5,891 " fill="#FEFFDD" style="stroke:#181818;stroke-width:0.5;"/><path d="M2702.5,891 L2702.5,901 L2712.5,901 L2702.5,891 " fill="#FEFFDD" style="stroke:#181818;stroke-width:0.5;"/><text fill="#000000" font-family="sans-serif" font-size="13" lengthAdjust="spacing" textLength="906" x="1791.5" y="909.4951">As entidades representam objetos de dom&#237;nio com seus atributos e m&#233;todos de comportamento. Definem a estrutura de dados e regras de neg&#243;cio b&#225;sicas.</text><text fill="#000000" font-family="sans-serif" font-size="13" font-weight="bold" lengthAdjust="spacing" textLength="109" x="1791.5" y="925.8467">Recomenda&#231;&#245;es:</text><text fill="#000000" font-family="sans-serif" font-size="13" lengthAdjust="spacing" textLength="407" x="1791.5" y="942.1982">1. Manter as entidades puras e livres de depend&#234;ncias de frameworks.</text><text fill="#000000" font-family="sans-serif" font-size="13" lengthAdjust="spacing" textLength="451" x="1791.5" y="958.5498">2. Utilizar m&#233;todos para encapsular comportamentos relacionados aos dados.</text></g><!--class ZodValidationPipe--><g id="elem_ZodValidationPipe"><rect codeLine="93" fill="#F1F1F1" height="65.6094" id="ZodValidationPipe" rx="2.5" ry="2.5" style="stroke:#181818;stroke-width:0.5;" width="387" x="3172.5" y="90.5"/><ellipse cx="3304.75" cy="106.5" fill="#ADD1B2" rx="11" ry="11" style="stroke:#181818;stroke-width:1.0;"/><path d="M3307.5156,102.375 Q3307.6719,102.1563 3307.8594,102.0469 Q3308.0469,101.9375 3308.2656,101.9375 Q3308.6406,101.9375 3308.875,102.1953 Q3309.1094,102.4531 3309.1094,103.0625 L3309.1094,104.5156 Q3309.1094,105.125 3308.875,105.3906 Q3308.6406,105.6563 3308.2656,105.6563 Q3307.9219,105.6563 3307.7188,105.4531 Q3307.5156,105.2656 3307.4063,104.75 Q3307.3594,104.3906 3307.1719,104.2031 Q3306.8438,103.8281 3306.2344,103.6094 Q3305.625,103.3906 3305,103.3906 Q3304.2344,103.3906 3303.6016,103.7188 Q3302.9688,104.0469 3302.4766,104.7969 Q3301.9844,105.5469 3301.9844,106.5781 L3301.9844,107.6719 Q3301.9844,108.9063 3302.875,109.7266 Q3303.7656,110.5469 3305.3594,110.5469 Q3306.2969,110.5469 3306.9531,110.2969 Q3307.3438,110.1406 3307.7656,109.7031 Q3308.0313,109.4375 3308.1797,109.3594 Q3308.3281,109.2813 3308.5313,109.2813 Q3308.8594,109.2813 3309.1172,109.5391 Q3309.375,109.7969 3309.375,110.1406 Q3309.375,110.4844 3309.0313,110.8906 Q3308.5313,111.4688 3307.7344,111.7969 Q3306.6563,112.25 3305.3594,112.25 Q3303.8438,112.25 3302.6406,111.625 Q3301.6563,111.125 3300.9688,110.0547 Q3300.2813,108.9844 3300.2813,107.7031 L3300.2813,106.5469 Q3300.2813,105.2188 3300.8984,104.0703 Q3301.5156,102.9219 3302.6094,102.3047 Q3303.7031,101.6875 3304.9375,101.6875 Q3305.6719,101.6875 3306.3203,101.8516 Q3306.9688,102.0156 3307.5156,102.375 Z " fill="#000000"/><text fill="#000000" font-family="sans-serif" font-size="14" lengthAdjust="spacing" textLength="114" x="3325.25" y="112.2285">ZodValidationPipe</text><line style="stroke:#181818;stroke-width:0.5;" x1="3173.5" x2="3558.5" y1="122.5" y2="122.5"/><line style="stroke:#181818;stroke-width:0.5;" x1="3173.5" x2="3558.5" y1="130.5" y2="130.5"/><ellipse cx="3183.5" cy="144.8047" fill="#84BE84" rx="3" ry="3" style="stroke:#038048;stroke-width:1.0;"/><text fill="#000000" font-family="sans-serif" font-size="14" lengthAdjust="spacing" textLength="361" x="3192.5" y="149.0332">transform(value: any, metadata: ArgumentMetadata): any</text></g><g id="elem_GMN38"><path d="M3595,86 L3595,119.5 L3559.64,123.5 L3595,127.5 L3595,161.4063 A0,0 0 0 0 3595,161.4063 L4231,161.4063 A0,0 0 0 0 4231,161.4063 L4231,96 L4221,86 L3595,86 A0,0 0 0 0 3595,86 " fill="#FEFFDD" style="stroke:#181818;stroke-width:0.5;"/><path d="M4221,86 L4221,96 L4231,96 L4221,86 " fill="#FEFFDD" style="stroke:#181818;stroke-width:0.5;"/><text fill="#000000" font-family="sans-serif" font-size="13" lengthAdjust="spacing" textLength="615" x="3601" y="104.4951">O ZodValidationPipe utiliza a biblioteca Zod para validar e transformar dados de entrada nos controladores.</text><text fill="#000000" font-family="sans-serif" font-size="13" font-weight="bold" lengthAdjust="spacing" textLength="109" x="3601" y="120.8467">Recomenda&#231;&#245;es:</text><text fill="#000000" font-family="sans-serif" font-size="13" lengthAdjust="spacing" textLength="366" x="3601" y="137.1982">1. Definir esquemas Zod para cada DTO (Data Transfer Object).</text><text fill="#000000" font-family="sans-serif" font-size="13" lengthAdjust="spacing" textLength="427" x="3601" y="153.5498">2. Usar Pipes personalizados para valida&#231;&#245;es consistentes e reutiliz&#225;veis.</text></g><!--class UseCaseError--><g id="elem_UseCaseError"><rect codeLine="105" fill="#F1F1F1" height="48" id="UseCaseError" rx="2.5" ry="2.5" style="stroke:#181818;stroke-width:0.5;" width="121" x="4183.5" y="904.5"/><ellipse cx="4198.5" cy="920.5" fill="#ADD1B2" rx="11" ry="11" style="stroke:#181818;stroke-width:1.0;"/><path d="M4201.2656,916.375 Q4201.4219,916.1563 4201.6094,916.0469 Q4201.7969,915.9375 4202.0156,915.9375 Q4202.3906,915.9375 4202.625,916.1953 Q4202.8594,916.4531 4202.8594,917.0625 L4202.8594,918.5156 Q4202.8594,919.125 4202.625,919.3906 Q4202.3906,919.6563 4202.0156,919.6563 Q4201.6719,919.6563 4201.4688,919.4531 Q4201.2656,919.2656 4201.1563,918.75 Q4201.1094,918.3906 4200.9219,918.2031 Q4200.5938,917.8281 4199.9844,917.6094 Q4199.375,917.3906 4198.75,917.3906 Q4197.9844,917.3906 4197.3516,917.7188 Q4196.7188,918.0469 4196.2266,918.7969 Q4195.7344,919.5469 4195.7344,920.5781 L4195.7344,921.6719 Q4195.7344,922.9063 4196.625,923.7266 Q4197.5156,924.5469 4199.1094,924.5469 Q4200.0469,924.5469 4200.7031,924.2969 Q4201.0938,924.1406 4201.5156,923.7031 Q4201.7813,923.4375 4201.9297,923.3594 Q4202.0781,923.2813 4202.2813,923.2813 Q4202.6094,923.2813 4202.8672,923.5391 Q4203.125,923.7969 4203.125,924.1406 Q4203.125,924.4844 4202.7813,924.8906 Q4202.2813,925.4688 4201.4844,925.7969 Q4200.4063,926.25 4199.1094,926.25 Q4197.5938,926.25 4196.3906,925.625 Q4195.4063,925.125 4194.7188,924.0547 Q4194.0313,922.9844 4194.0313,921.7031 L4194.0313,920.5469 Q4194.0313,919.2188 4194.6484,918.0703 Q4195.2656,916.9219 4196.3594,916.3047 Q4197.4531,915.6875 4198.6875,915.6875 Q4199.4219,915.6875 4200.0703,915.8516 Q4200.7188,916.0156 4201.2656,916.375 Z " fill="#000000"/><text fill="#000000" font-family="sans-serif" font-size="14" lengthAdjust="spacing" textLength="89" x="4212.5" y="926.2285">UseCaseError</text><line style="stroke:#181818;stroke-width:0.5;" x1="4184.5" x2="4303.5" y1="936.5" y2="936.5"/><line style="stroke:#181818;stroke-width:0.5;" x1="4184.5" x2="4303.5" y1="944.5" y2="944.5"/></g><!--class EntityAlreadyExistsError--><g id="elem_EntityAlreadyExistsError"><rect codeLine="106" fill="#F1F1F1" height="65.6094" id="EntityAlreadyExistsError" rx="2.5" ry="2.5" style="stroke:#181818;stroke-width:0.5;" width="202" x="4143" y="699"/><ellipse cx="4166.55" cy="715" fill="#ADD1B2" rx="11" ry="11" style="stroke:#181818;stroke-width:1.0;"/><path d="M4169.3156,710.875 Q4169.4719,710.6563 4169.6594,710.5469 Q4169.8469,710.4375 4170.0656,710.4375 Q4170.4406,710.4375 4170.675,710.6953 Q4170.9094,710.9531 4170.9094,711.5625 L4170.9094,713.0156 Q4170.9094,713.625 4170.675,713.8906 Q4170.4406,714.1563 4170.0656,714.1563 Q4169.7219,714.1563 4169.5188,713.9531 Q4169.3156,713.7656 4169.2063,713.25 Q4169.1594,712.8906 4168.9719,712.7031 Q4168.6438,712.3281 4168.0344,712.1094 Q4167.425,711.8906 4166.8,711.8906 Q4166.0344,711.8906 4165.4016,712.2188 Q4164.7688,712.5469 4164.2766,713.2969 Q4163.7844,714.0469 4163.7844,715.0781 L4163.7844,716.1719 Q4163.7844,717.4063 4164.675,718.2266 Q4165.5656,719.0469 4167.1594,719.0469 Q4168.0969,719.0469 4168.7531,718.7969 Q4169.1438,718.6406 4169.5656,718.2031 Q4169.8313,717.9375 4169.9797,717.8594 Q4170.1281,717.7813 4170.3313,717.7813 Q4170.6594,717.7813 4170.9172,718.0391 Q4171.175,718.2969 4171.175,718.6406 Q4171.175,718.9844 4170.8313,719.3906 Q4170.3313,719.9688 4169.5344,720.2969 Q4168.4563,720.75 4167.1594,720.75 Q4165.6438,720.75 4164.4406,720.125 Q4163.4563,719.625 4162.7688,718.5547 Q4162.0813,717.4844 4162.0813,716.2031 L4162.0813,715.0469 Q4162.0813,713.7188 4162.6984,712.5703 Q4163.3156,711.4219 4164.4094,710.8047 Q4165.5031,710.1875 4166.7375,710.1875 Q4167.4719,710.1875 4168.1203,710.3516 Q4168.7688,710.5156 4169.3156,710.875 Z " fill="#000000"/><text fill="#000000" font-family="sans-serif" font-size="14" lengthAdjust="spacing" textLength="151" x="4182.45" y="720.7285">EntityAlreadyExistsError</text><line style="stroke:#181818;stroke-width:0.5;" x1="4144" x2="4344" y1="731" y2="731"/><line style="stroke:#181818;stroke-width:0.5;" x1="4144" x2="4344" y1="739" y2="739"/><ellipse cx="4154" cy="753.3047" fill="#84BE84" rx="3" ry="3" style="stroke:#038048;stroke-width:1.0;"/><text fill="#000000" font-family="sans-serif" font-size="14" lengthAdjust="spacing" textLength="176" x="4163" y="757.5332">constructor(attribute: string)</text></g><g id="elem_GMN45"><path d="M4380.5,694.5 L4380.5,728 L4345.19,732 L4380.5,736 L4380.5,769.9063 A0,0 0 0 0 4380.5,769.9063 L4889.5,769.9063 A0,0 0 0 0 4889.5,769.9063 L4889.5,704.5 L4879.5,694.5 L4380.5,694.5 A0,0 0 0 0 4380.5,694.5 " fill="#FEFFDD" style="stroke:#181818;stroke-width:0.5;"/><path d="M4879.5,694.5 L4879.5,704.5 L4889.5,704.5 L4879.5,694.5 " fill="#FEFFDD" style="stroke:#181818;stroke-width:0.5;"/><text fill="#000000" font-family="sans-serif" font-size="13" lengthAdjust="spacing" textLength="488" x="4386.5" y="712.9951">As classes de erro s&#227;o usadas para representar erros espec&#237;ficos em casos de uso.</text><text fill="#000000" font-family="sans-serif" font-size="13" font-weight="bold" lengthAdjust="spacing" textLength="109" x="4386.5" y="729.3467">Recomenda&#231;&#245;es:</text><text fill="#000000" font-family="sans-serif" font-size="13" lengthAdjust="spacing" textLength="384" x="4386.5" y="745.6982">1. Definir erros espec&#237;ficos para diferentes falhas de casos de uso.</text><text fill="#000000" font-family="sans-serif" font-size="13" lengthAdjust="spacing" textLength="306" x="4386.5" y="762.0498">2. Manter a hierarquia de erros clara e documentada.</text></g><!--class PublicDecorator--><g id="elem_PublicDecorator"><rect codeLine="118" fill="#F1F1F1" height="65.6094" id="PublicDecorator" rx="2.5" ry="2.5" style="stroke:#181818;stroke-width:0.5;" width="133" x="2472.5" y="90.5"/><ellipse cx="2487.5" cy="106.5" fill="#ADD1B2" rx="11" ry="11" style="stroke:#181818;stroke-width:1.0;"/><path d="M2490.2656,102.375 Q2490.4219,102.1563 2490.6094,102.0469 Q2490.7969,101.9375 2491.0156,101.9375 Q2491.3906,101.9375 2491.625,102.1953 Q2491.8594,102.4531 2491.8594,103.0625 L2491.8594,104.5156 Q2491.8594,105.125 2491.625,105.3906 Q2491.3906,105.6563 2491.0156,105.6563 Q2490.6719,105.6563 2490.4688,105.4531 Q2490.2656,105.2656 2490.1563,104.75 Q2490.1094,104.3906 2489.9219,104.2031 Q2489.5938,103.8281 2488.9844,103.6094 Q2488.375,103.3906 2487.75,103.3906 Q2486.9844,103.3906 2486.3516,103.7188 Q2485.7188,104.0469 2485.2266,104.7969 Q2484.7344,105.5469 2484.7344,106.5781 L2484.7344,107.6719 Q2484.7344,108.9063 2485.625,109.7266 Q2486.5156,110.5469 2488.1094,110.5469 Q2489.0469,110.5469 2489.7031,110.2969 Q2490.0938,110.1406 2490.5156,109.7031 Q2490.7813,109.4375 2490.9297,109.3594 Q2491.0781,109.2813 2491.2813,109.2813 Q2491.6094,109.2813 2491.8672,109.5391 Q2492.125,109.7969 2492.125,110.1406 Q2492.125,110.4844 2491.7813,110.8906 Q2491.2813,111.4688 2490.4844,111.7969 Q2489.4063,112.25 2488.1094,112.25 Q2486.5938,112.25 2485.3906,111.625 Q2484.4063,111.125 2483.7188,110.0547 Q2483.0313,108.9844 2483.0313,107.7031 L2483.0313,106.5469 Q2483.0313,105.2188 2483.6484,104.0703 Q2484.2656,102.9219 2485.3594,102.3047 Q2486.4531,101.6875 2487.6875,101.6875 Q2488.4219,101.6875 2489.0703,101.8516 Q2489.7188,102.0156 2490.2656,102.375 Z " fill="#000000"/><text fill="#000000" font-family="sans-serif" font-size="14" lengthAdjust="spacing" textLength="101" x="2501.5" y="112.2285">PublicDecorator</text><line style="stroke:#181818;stroke-width:0.5;" x1="2473.5" x2="2604.5" y1="122.5" y2="122.5"/><line style="stroke:#181818;stroke-width:0.5;" x1="2473.5" x2="2604.5" y1="130.5" y2="130.5"/><ellipse cx="2483.5" cy="144.8047" fill="#84BE84" rx="3" ry="3" style="stroke:#038048;stroke-width:1.0;"/><text fill="#000000" font-family="sans-serif" font-size="14" lengthAdjust="spacing" textLength="82" x="2492.5" y="149.0332">Public(): void</text></g><g id="elem_GMN50"><path d="M2640.5,86 L2640.5,119.5 L2605.54,123.5 L2640.5,127.5 L2640.5,161.4063 A0,0 0 0 0 2640.5,161.4063 L3115.5,161.4063 A0,0 0 0 0 3115.5,161.4063 L3115.5,96 L3105.5,86 L2640.5,86 A0,0 0 0 0 2640.5,86 " fill="#FEFFDD" style="stroke:#181818;stroke-width:0.5;"/><path d="M3105.5,86 L3105.5,96 L3115.5,96 L3105.5,86 " fill="#FEFFDD" style="stroke:#181818;stroke-width:0.5;"/><text fill="#000000" font-family="sans-serif" font-size="13" lengthAdjust="spacing" textLength="454" x="2646.5" y="104.4951">O decorator Public &#233; usado para marcar rotas que n&#227;o requerem autentica&#231;&#227;o.</text><text fill="#000000" font-family="sans-serif" font-size="13" font-weight="bold" lengthAdjust="spacing" textLength="109" x="2646.5" y="120.8467">Recomenda&#231;&#245;es:</text><text fill="#000000" font-family="sans-serif" font-size="13" lengthAdjust="spacing" textLength="353" x="2646.5" y="137.1982">1. Usar decorators para metadados e l&#243;gica de autentica&#231;&#227;o.</text><text fill="#000000" font-family="sans-serif" font-size="13" lengthAdjust="spacing" textLength="329" x="2646.5" y="153.5498">2. Manter a l&#243;gica de autentica&#231;&#227;o modular e reutiliz&#225;vel.</text></g><!--reverse link GenericRepository to PrismaRepository--><g id="link_GenericRepository_PrismaRepository"><path d="M1211.0565,782.6175 C1154.1565,815.8475 1089.55,853.58 1032.6,886.85 " fill="none" id="GenericRepository-backto-PrismaRepository" style="stroke:#181818;stroke-width:1.0;stroke-dasharray:7.0,7.0;"/><polygon fill="none" points="1226.6,773.54,1208.0307,777.4363,1214.0824,787.7986,1226.6,773.54" style="stroke:#181818;stroke-width:1.0;"/></g><!--reverse link GenericRepository to InMemoryRepository--><g id="link_GenericRepository_InMemoryRepository"><path d="M1296,791.77 C1296,824.97 1296,853.6 1296,886.78 " fill="none" id="GenericRepository-backto-InMemoryRepository" style="stroke:#181818;stroke-width:1.0;stroke-dasharray:7.0,7.0;"/><polygon fill="none" points="1296,773.77,1290,791.77,1302,791.77,1296,773.77" style="stroke:#181818;stroke-width:1.0;"/></g><!--reverse link HashGenerator to BcryptHashGenerator--><g id="link_HashGenerator_BcryptHashGenerator"><path d="M2860,783.12 C2860,819.16 2860,859.28 2860,895.33 " fill="none" id="HashGenerator-backto-BcryptHashGenerator" style="stroke:#181818;stroke-width:1.0;stroke-dasharray:7.0,7.0;"/><polygon fill="none" points="2860,765.12,2854,783.12,2866,783.12,2860,765.12" style="stroke:#181818;stroke-width:1.0;"/></g><!--reverse link HashGenerator to FakeHashGenerator--><g id="link_HashGenerator_FakeHashGenerator"><path d="M2920.471,775.464 C2967.951,808.804 3027.62,850.7 3079.16,886.89 " fill="none" id="HashGenerator-backto-FakeHashGenerator" style="stroke:#181818;stroke-width:1.0;stroke-dasharray:7.0,7.0;"/><polygon fill="none" points="2905.74,765.12,2917.023,780.3743,2923.919,770.5536,2905.74,765.12" style="stroke:#181818;stroke-width:1.0;"/></g><!--reverse link UseCaseError to EntityAlreadyExistsError--><g id="link_UseCaseError_EntityAlreadyExistsError"><path d="M4255.8873,886.6971 C4261.3073,852.1171 4258.93,804.39 4254.33,765.12 " fill="none" id="UseCaseError-backto-EntityAlreadyExistsError" style="stroke:#181818;stroke-width:1.0;"/><polygon fill="none" points="4253.1,904.48,4261.8149,887.6262,4249.9596,885.768,4253.1,904.48" style="stroke:#181818;stroke-width:1.0;"/></g><!--reverse link EntityAlreadyExistsError to UseCaseError--><g id="link_EntityAlreadyExistsError_UseCaseError"><path codeLine="136" d="M4232.2627,783.0111 C4227.9227,822.2811 4230.28,869.9 4235.41,904.48 " fill="none" id="EntityAlreadyExistsError-backto-UseCaseError" style="stroke:#181818;stroke-width:1.0;"/><polygon fill="none" points="4234.24,765.12,4226.299,782.352,4238.2264,783.6702,4234.24,765.12" style="stroke:#181818;stroke-width:1.0;"/></g><!--link GenericController to GenericUseCase--><g id="link_GenericController_GenericUseCase"><path codeLine="131" d="M2860,381.08 C2860,413.05 2860,446.31 2860,476.84 " fill="none" id="GenericController-to-GenericUseCase" style="stroke:#181818;stroke-width:1.0;"/><polygon fill="#181818" points="2860,482.84,2864,473.84,2860,477.84,2856,473.84,2860,482.84" style="stroke:#181818;stroke-width:1.0;"/><polygon fill="#000000" points="2865,427.1758,2867.9389,418.1307,2862.0611,418.1307,2865,427.1758" style="stroke:#000000;stroke-width:1.0;"/><text fill="#000000" font-family="sans-serif" font-size="13" lengthAdjust="spacing" textLength="58" x="2874" y="427.4951">Delegates</text></g><!--link GenericUseCase to GenericRepository--><g id="link_GenericUseCase_GenericRepository"><path codeLine="132" d="M2694.84,555.25 C2388.9,593.69 1744.4732,674.6519 1451.0532,711.5219 " fill="none" id="GenericUseCase-to-GenericRepository" style="stroke:#181818;stroke-width:1.0;"/><polygon fill="#181818" points="1445.1,712.27,1454.5285,715.1167,1450.061,711.6466,1453.5311,707.1791,1445.1,712.27" style="stroke:#181818;stroke-width:1.0;"/><polygon fill="#000000" points="2171.039,625.7991,2180.3799,627.5875,2179.6472,621.7555,2171.039,625.7991" style="stroke:#000000;stroke-width:1.0;"/><text fill="#000000" font-family="sans-serif" font-size="13" lengthAdjust="spacing" textLength="30" x="2185" y="630.4951">Uses</text></g><!--link GenericUseCase to HashGenerator--><g id="link_GenericUseCase_HashGenerator"><path codeLine="133" d="M2860,584.09 C2860,620.13 2860,661.86 2860,692.98 " fill="none" id="GenericUseCase-to-HashGenerator" style="stroke:#181818;stroke-width:1.0;"/><polygon fill="#181818" points="2860,698.98,2864,689.98,2860,693.98,2856,689.98,2860,698.98" style="stroke:#181818;stroke-width:1.0;"/><polygon fill="#000000" points="2865,630.1758,2867.9389,621.1307,2862.0611,621.1307,2865,630.1758" style="stroke:#000000;stroke-width:1.0;"/><text fill="#000000" font-family="sans-serif" font-size="13" lengthAdjust="spacing" textLength="30" x="2874" y="630.4951">Uses</text></g><!--link GenericRepository to Entity--><g id="link_GenericRepository_Entity"><path codeLine="134" d="M1364.78,773.54 C1416.25,803.87 1481.7613,842.483 1536.6213,874.823 " fill="none" id="GenericRepository-to-Entity" style="stroke:#181818;stroke-width:1.0;"/><polygon fill="#181818" points="1541.79,877.87,1536.0682,869.8537,1537.4827,875.3309,1532.0056,876.7454,1541.79,877.87" style="stroke:#181818;stroke-width:1.0;"/><polygon fill="#000000" points="1460.3075,819.7146,1454.0075,812.59,1451.0229,817.6537,1460.3075,819.7146" style="stroke:#000000;stroke-width:1.0;"/><text fill="#000000" font-family="sans-serif" font-size="13" lengthAdjust="spacing" textLength="48" x="1465" y="822.4951">Persists</text></g><!--link ZodValidationPipe to GenericController--><g id="link_ZodValidationPipe_GenericController"><path codeLine="135" d="M3242.9,156.55 C3145.8,181.99 3024.91,214.08 3014,219 C2987.69,230.86 2965.8229,243.6478 2942.0729,259.5778 " fill="none" id="ZodValidationPipe-to-GenericController" style="stroke:#181818;stroke-width:1.0;"/><polygon fill="#181818" points="2937.09,262.92,2946.7925,261.2286,2941.2424,260.1348,2942.3362,254.5847,2937.09,262.92" style="stroke:#181818;stroke-width:1.0;"/><polygon fill="#000000" points="3098.2697,203.7958,3107.7791,203.6455,3105.8746,198.0848,3098.2697,203.7958" style="stroke:#000000;stroke-width:1.0;"/><text fill="#000000" font-family="sans-serif" font-size="13" lengthAdjust="spacing" textLength="30" x="3112" y="207.4951">Uses</text></g><!--link PublicDecorator to GenericController--><g id="link_PublicDecorator_GenericController"><path codeLine="137" d="M2582,156.77 C2594.99,166.16 2609.4,176.24 2623,185 C2664.77,211.92 2706.8043,236.6317 2748.0843,259.9217 " fill="none" id="PublicDecorator-to-GenericController" style="stroke:#181818;stroke-width:1.0;"/><polygon fill="#181818" points="2753.31,262.87,2747.437,254.9638,2748.9553,260.4131,2743.506,261.9313,2753.31,262.87" style="stroke:#181818;stroke-width:1.0;"/><polygon fill="#000000" points="2669.2475,204.8138,2663.1143,197.545,2660.0132,202.5382,2669.2475,204.8138" style="stroke:#000000;stroke-width:1.0;"/><text fill="#000000" font-family="sans-serif" font-size="13" lengthAdjust="spacing" textLength="30" x="2674" y="207.4951">Uses</text></g><!--link GenericUseCase to EntityAlreadyExistsError--><g id="link_GenericUseCase_EntityAlreadyExistsError"><path codeLine="138" d="M2965.45,584.1 C2990.36,593.77 3017.2,602.58 3043,608 C3273.65,656.44 3877.68,572.9 4103,642 C4141.05,653.67 4174.1359,674.8457 4201.0259,695.3157 " fill="none" id="GenericUseCase-to-EntityAlreadyExistsError" style="stroke:#181818;stroke-width:1.0;"/><polygon fill="#181818" points="4205.8,698.95,4201.0617,690.3158,4201.8216,695.9214,4196.216,696.6813,4205.8,698.95" style="stroke:#181818;stroke-width:1.0;"/><polygon fill="#000000" points="4067.9799,625.624,4059.2347,621.8861,4058.7077,627.7402,4067.9799,625.624" style="stroke:#000000;stroke-width:1.0;"/><text fill="#000000" font-family="sans-serif" font-size="13" lengthAdjust="spacing" textLength="41" x="4072" y="630.4951">Throws</text></g><!--SRC=[pLZDRjj64BxxAHRkHNRimB7Tf1MA8BPb9odWMd2S7dfRaIjv4tANtIMLA6aU9kYXI82SWZm1NwpVx58KVst7_K44moB5sPtPcM- -cM72WvTy9jZw8Iw42jdOw1SYIDVPsxKrXa-o53ZIAZKwYeInw-oxavFHWvqT2B7Y4qJSMlPOA65ai9AjID1dcsLM774hXalHv_w-8ML4egrCjLcKWkVbJmtPIsuldGp7mo5xKhsjY-9J- -4Ergem4kVYzqpOT63yzv0LFrmi4h5HhdXNNYcT2cRax39bUje-Sqt7cMM1Vy93ROHbDlzJutmsqShcx-T2MfPemo8PSWFHc77Bo11fPVvN_WKhdbnSZ9bWeOZ4338fDs8AeOGRpZIsvnR_Gm7NQeWLhii_6wdjNVOybP5ymsC81DeKDeIQ_OBp_VoC3HwjxDvYZyRQflWwrE42NuZDM2R2Rc3RANyZOZRdP6TX5ndxcmxnq4cn1D3GYfEw4AfhRjZSF8V-60WhLWytDsi2z-woKwvI84OtFPPGD1H-XXKweBqPJD76nSZ08vn5-UUP37XTv-vTDYfyLagGdvIOvPy3gJizMDzY3mwqM2_L2m6x4RcG0f7W7Fb75KY4OQgD4W6y0ZkZfLzNkr1E4LxMF8JgEGK7CqA_pwZzx_ipgaYJLZhzNuaYNeiWIqLtYj2TmxEWsvicJ5VcdpNWJ438FyOzyHCh49289FXm7oO103Lo0U9Mc3coYlBY6Kd9E8a4G9awK06VsdiTe5C4Zz2Gr96EO_04rkDB9bd4-mnAZ0Ge4XxT6lmz1rK1JomK0sNgIi02yyTp2Ofee3IKHgJShPd2M-ALDY_fZlACXPrQRuZX4cxImNXdv_3avAI2KnULAGz46vyDDDzXKwd2myL1cXev8RJnvTMG8SXIpG2rOvNAT543cbzi-LmCX7jQbSAIkPPX1oezB2CnhQAo9tlER0DCFJJkCJYJ1PKZKZ45ZLY3CBR5-8JWYdDgvaAOykXIkBWGVKgR-eXLY7jif8svH-VP-Qch170KA33EFwGwz4Y0WoqIXdizNu-_WkQAM1NLnIboPm5EG1DEKxt0DD7tj4mfqqm_cuWW_pIL0Muooya5nTcSigjEi5Uj3lLjgoKXyVd_nJjqmbMWIzVtm7d5jDwM2ZfBTh3V77IznK_LgOXXp3TjCsETjF6Cg3XmbB6tUpJQssrLlbfzQjbEnMmGyfHNRFKNlUuw3CmYIUlRLlprh-ixuI_5VwVD2oAjaJoY9hlbbbTMJhIE15VN5kR-Zk2Wg8iDi_CFB4FwUaxpXTUdCfkLbHZvH-O8M-M6ieDKWQzBZjsw0kHu5cmHSfVYYT5XLfJu3WSxxIaw0d5h2cpQQCKiCyjsUwL-oviySIQtMB2hcfCNi1ljGnNXdzHSbswoQ1iFkjf6dv2jTh7Cy7j3Hjbwh-_vhd- -UrrVYF3nT0c_4VuN7D116tseyw9rk5bguD1JXyBHFUeiHGGCFtaXYZ8KwZZ_fAHsXTQApC9uPxlhzAgbaN946op77ffc0byzEQFECKipiwhFRdwQ6TyebUtN97zl4QZRZpIyUfx4mGcDXvmRNwWQhLgrHMiXgsWBpEg43fXbXsZgnoNtHHo7KEvud3noHJLi0krND- -bMEwWTl_7m_qMr302hiHe4con6SX1MSn9yG3pOuRgmXN6onY9xt5pO6OPMNjQ_BBX9Au5JajnlMFhC2pppaFe9t8IIUo6zACHrldG3xS6eIaDfZwQ5p2YNhbimAi3wjV3ObJqLS9YV8cvNTaGa8RHnHaRK3An2sS847GseRSo6squ46TrZT_L8wtObXfCd4Due7jt-ExrfinZZ2vU0DtVst_G0aCnr3anzlPT9oiTH22DS77y6iPOBobUmwomkRnLwnGbR02YxsXLRiWpRULDvbbEW1HoFAzL8EVK5I4P9z5eRK4j_VFPLw6ZlRVloYKGuQCunVJWAUFAaR0iHvSIXH8pi-JBuxdp4e60K8FCpyByXc0OkLTAgGV4mMZqm_7z5Y366H8jA2LRGVNF1_sjRZs8ZUqQ6H-MQhoSQr0GkQ8jGJe7D9PewZYGUKpv8GwNXWf2Hha1edS5_fRzGsb24IpFShwqL0h-LRfw-eVw4XQZ4uaSMrKJEUeF7VxQhsUtjnysNp4DAR3qsem0zd1zhV6uig8oMWpTowm- -NgJrfQjR4JYHVC2kR6VYPricyuhfbIELDc-bsz- -cDxkqOsQqsSNhjtnp5xrM7PnQNHhzp2lm40]--></g></svg>